<svg width="48" height="48" viewBox="0 0 48 48" fill="none" xmlns="http://www.w3.org/2000/svg">
<rect width="48" height="48" rx="10" fill="white" fill-opacity="0.1"/>
<path d="M30.1468 27.5928C28.8162 26.2734 27.0523 25.5469 25.18 25.5469H23.02C21.1477 25.5469 19.3838 26.2734 18.0532 27.5928C16.7292 28.9057 16 30.6387 16 32.4727C16 32.7639 16.2418 33 16.54 33H31.66C31.9582 33 32.2 32.7639 32.2 32.4727C32.2 30.6387 31.4708 28.9057 30.1468 27.5928Z" fill="white"/>
<path d="M24.1 15C21.4202 15 19.24 17.1291 19.24 19.7461C19.24 22.3631 21.4202 24.4922 24.1 24.4922C26.7798 24.4922 28.96 22.3631 28.96 19.7461C28.96 17.1291 26.7798 15 24.1 15Z" fill="white"/>
</svg>
