<svg width="48" height="48" viewBox="0 0 48 48" fill="none" xmlns="http://www.w3.org/2000/svg">
<path d="M30.804 26.3001H20.5196L20.4128 25.8029L18.7578 18.1H19.0804H33.0692L30.804 26.3001Z" stroke="white" stroke-width="1.4"/>
<path d="M21.6396 32.4001C20.9783 32.4001 20.4395 31.8613 20.4395 31.2001C20.4395 30.539 20.9783 30.0001 21.6396 30.0001C22.3006 30.0001 22.8395 30.5389 22.8395 31.2001C22.8395 31.8613 22.3007 32.4001 21.6396 32.4001Z" stroke="white" stroke-width="1.2"/>
<path d="M29.7993 32.4001C29.1382 32.4001 28.5993 31.8613 28.5993 31.2001C28.5993 30.539 29.1382 30.0001 29.7993 30.0001C30.4606 30.0001 30.9993 30.5389 30.9993 31.2001C30.9993 31.8613 30.4606 32.4001 29.7993 32.4001Z" stroke="white" stroke-width="1.2"/>
</svg>
