<svg width="203" height="25" viewBox="0 0 203 25" fill="none" xmlns="http://www.w3.org/2000/svg">
<path d="M-1.52588e-05 0.837748H18.1166V4.81981H5.5964V10.5238H16.9327V14.5059H5.5964V24.1203H-1.52588e-05V0.837748Z" fill="white"/>
<path d="M21.6808 6.75703H26.6673V9.80636C26.6673 9.25628 26.8945 8.71817 27.3489 8.19201C27.8033 7.66585 28.3773 7.23536 29.0709 6.90053C29.7884 6.5657 30.4939 6.39829 31.1875 6.39829H33.053V10.7391H31.2592C29.7764 10.7391 28.6763 10.9663 27.9588 11.4207C27.2652 11.8751 26.9184 12.6285 26.9184 13.6808V24.1203H21.6808V6.75703Z" fill="white"/>
<path d="M41.9664 24.479C39.7421 24.479 38.1756 24.0844 37.2668 23.2951C36.3819 22.482 35.9394 21.2144 35.9394 19.4925V6.75703H41.1771V18.775C41.1771 19.4446 41.2369 19.9469 41.3565 20.2817C41.5 20.6165 41.7631 20.8557 42.1457 20.9992C42.5523 21.1427 43.1622 21.2144 43.9753 21.2144C45.0037 21.2144 45.7571 21.1546 46.2354 21.0351C46.7137 20.8916 47.0366 20.6524 47.204 20.3176C47.3714 19.9827 47.4551 19.4685 47.4551 18.775V6.75703H52.6928V24.1203H47.5269V22.0037C47.1442 23.6539 45.2907 24.479 41.9664 24.479Z" fill="white"/>
<path d="M57.4184 0.479004H62.6561V4.71219H57.4184V0.479004ZM57.4184 6.75703H62.6561V24.1203H57.4184V6.75703Z" fill="white"/>
<path d="M76.0813 24.479C75.1964 24.479 74.4549 24.4431 73.857 24.3714C73.2591 24.2996 72.6612 24.1561 72.0633 23.9409C71.3937 23.7256 70.8436 23.4267 70.4131 23.044C70.0065 22.6614 69.6717 22.1352 69.4086 21.4656C69.1216 20.772 68.9781 19.9708 68.9781 19.062V9.98573H65.4624V6.75703H68.9781V1.73461H74.2158V6.75703H78.9871V9.98573H74.2158V18.1651C74.2158 19.0022 74.2875 19.636 74.431 20.0664C74.5745 20.473 74.8496 20.772 75.2561 20.9633C75.6627 21.1307 76.2845 21.2144 77.1216 21.2144C77.4564 21.2144 78.0783 21.1546 78.9871 21.0351V24.2996C77.863 24.4192 76.8944 24.479 76.0813 24.479Z" fill="white"/>
<path d="M88.5019 24.479C86.6365 24.479 84.3525 24.2996 81.6499 23.9409V20.4611C84.9743 20.9633 87.2822 21.2144 88.5737 21.2144C89.6738 21.2144 90.487 21.1068 91.0132 20.8916C91.5393 20.6763 91.8024 20.2817 91.8024 19.7077V18.6315C91.8024 18.0336 91.635 17.615 91.3001 17.3759C90.9653 17.1128 90.3076 16.9812 89.3271 16.9812H87.067C85.2254 16.9812 83.8024 16.6225 82.7979 15.905C81.7934 15.1636 81.2912 14.0874 81.2912 12.6763V10.5597C81.2912 9.05299 82.0087 7.98872 83.4436 7.3669C84.8786 6.72116 87.043 6.39829 89.9369 6.39829C91.0849 6.39829 93.1417 6.50591 96.1073 6.72116V10.0575C92.3764 9.77048 90.2717 9.62699 89.7934 9.62699C88.3824 9.62699 87.4616 9.72265 87.0311 9.91398C86.6484 10.1292 86.4571 10.5238 86.4571 11.0978V12.0306C86.4571 12.3415 86.6125 12.6165 86.9235 12.8557C87.2344 13.0709 87.6888 13.1786 88.2867 13.1786H90.5827C94.8398 13.1786 96.9683 14.5657 96.9683 17.34V19.5283C96.9683 20.3654 96.8129 21.0948 96.5019 21.7167C96.191 22.3385 95.7845 22.8288 95.2822 23.1875C94.8039 23.5224 94.1821 23.7854 93.4167 23.9768C92.6753 24.1681 91.8981 24.2996 91.0849 24.3714C90.3435 24.4431 89.4825 24.479 88.5019 24.479Z" fill="white"/>
<path d="M109.34 0.837748H118.775C120.999 0.837748 122.709 1.00516 123.905 1.33999C125.125 1.6509 125.986 2.1651 126.488 2.88259C126.99 3.57616 127.241 4.55673 127.241 5.82429V8.69425C127.241 9.33999 126.978 9.94986 126.452 10.5238C125.95 11.0978 125.352 11.4925 124.658 11.7077V11.8871C125.567 11.9827 126.392 12.3774 127.134 13.0709C127.899 13.7406 128.282 14.494 128.282 15.331V18.9185C128.282 20.8079 127.528 22.1472 126.022 22.9364C124.515 23.7256 122.183 24.1203 119.026 24.1203H109.34V0.837748ZM118.775 10.3086C119.66 10.3086 120.318 10.2369 120.748 10.0934C121.179 9.94986 121.466 9.72265 121.609 9.41174C121.776 9.07691 121.86 8.59859 121.86 7.97676V6.82878C121.86 6.27871 121.788 5.87213 121.645 5.60905C121.501 5.32205 121.202 5.11877 120.748 4.99918C120.318 4.8796 119.624 4.81981 118.667 4.81981H114.936V10.3086H118.775ZM118.918 20.1382C120.282 20.1382 121.25 19.9827 121.824 19.6718C122.398 19.3609 122.685 18.8587 122.685 18.1651V16.2996C122.685 15.4386 122.458 14.8288 122.004 14.47C121.573 14.1113 120.796 13.9319 119.672 13.9319H114.936V20.1382H118.918Z" fill="white"/>
<path d="M136.811 24.479C135.185 24.479 133.965 24.3355 133.152 24.0485C132.363 23.7376 131.801 23.1995 131.466 22.4342C131.155 21.6449 131 20.473 131 18.9185C131 17.5313 131.167 16.4431 131.502 15.6539C131.861 14.8647 132.423 14.3026 133.188 13.9678C133.977 13.609 135.054 13.4297 136.417 13.4297H142.3V12.2458C142.3 11.5044 142.193 10.9543 141.977 10.5956C141.786 10.2369 141.415 9.98573 140.865 9.84223C140.339 9.69874 139.538 9.62699 138.462 9.62699C136.979 9.62699 134.946 9.77048 132.363 10.0575V6.75703C134.252 6.51787 136.465 6.39829 139 6.39829C141.224 6.39829 142.934 6.5657 144.13 6.90053C145.349 7.23536 146.222 7.80935 146.749 8.6225C147.275 9.43566 147.538 10.6195 147.538 12.1741V24.1203H142.408V22.5418C142.001 23.2354 141.451 23.7256 140.758 24.0126C140.064 24.3235 138.749 24.479 136.811 24.479ZM138.856 21.2144C139.909 21.2144 140.662 21.1786 141.116 21.1068C141.451 21.059 141.678 20.9872 141.798 20.8916C141.941 20.7959 142.061 20.6404 142.157 20.4252C142.252 20.2578 142.3 20.0067 142.3 19.6718V16.2996H138.713C137.9 16.2996 137.326 16.3594 136.991 16.479C136.656 16.5747 136.429 16.7899 136.309 17.1247C136.19 17.4357 136.13 17.9977 136.13 18.8108C136.13 19.6001 136.19 20.1502 136.309 20.4611C136.429 20.772 136.656 20.9753 136.991 21.0709C137.349 21.1666 137.971 21.2144 138.856 21.2144Z" fill="white"/>
<path d="M151.285 21.3221L160.038 10.1651H151.644V6.75703H166.711V9.55524L157.958 20.7122H166.926V24.1203H151.285V21.3221Z" fill="white"/>
<path d="M175.418 24.479C173.792 24.479 172.572 24.3355 171.759 24.0485C170.97 23.7376 170.408 23.1995 170.073 22.4342C169.762 21.6449 169.607 20.473 169.607 18.9185C169.607 17.5313 169.774 16.4431 170.109 15.6539C170.468 14.8647 171.03 14.3026 171.795 13.9678C172.584 13.609 173.661 13.4297 175.024 13.4297H180.907V12.2458C180.907 11.5044 180.8 10.9543 180.584 10.5956C180.393 10.2369 180.022 9.98573 179.472 9.84223C178.946 9.69874 178.145 9.62699 177.069 9.62699C175.586 9.62699 173.553 9.77048 170.97 10.0575V6.75703C172.859 6.51787 175.072 6.39829 177.607 6.39829C179.831 6.39829 181.541 6.5657 182.737 6.90053C183.957 7.23536 184.829 7.80935 185.356 8.6225C185.882 9.43566 186.145 10.6195 186.145 12.1741V24.1203H181.015V22.5418C180.608 23.2354 180.058 23.7256 179.365 24.0126C178.671 24.3235 177.356 24.479 175.418 24.479ZM177.463 21.2144C178.516 21.2144 179.269 21.1786 179.723 21.1068C180.058 21.059 180.285 20.9872 180.405 20.8916C180.548 20.7959 180.668 20.6404 180.764 20.4252C180.859 20.2578 180.907 20.0067 180.907 19.6718V16.2996H177.32C176.507 16.2996 175.933 16.3594 175.598 16.479C175.263 16.5747 175.036 16.7899 174.916 17.1247C174.797 17.4357 174.737 17.9977 174.737 18.8108C174.737 19.6001 174.797 20.1502 174.916 20.4611C175.036 20.772 175.263 20.9753 175.598 21.0709C175.957 21.1666 176.578 21.2144 177.463 21.2144Z" fill="white"/>
<path d="M190.753 6.75703H195.74V9.80636C195.74 9.25628 195.967 8.71817 196.421 8.19201C196.876 7.66585 197.45 7.23536 198.143 6.90053C198.861 6.5657 199.566 6.39829 200.26 6.39829H202.125V10.7391H200.332C198.849 10.7391 197.749 10.9663 197.031 11.4207C196.338 11.8751 195.991 12.6285 195.991 13.6808V24.1203H190.753V6.75703Z" fill="white"/>
</svg>
