<svg width="48" height="48" viewBox="0 0 48 48" fill="none" xmlns="http://www.w3.org/2000/svg">
<path d="M30.3 21.9999V22.0021C30.3 23.2017 29.8769 24.4758 29.2298 25.7115C28.5858 26.9414 27.744 28.088 26.9635 29.0201C26.0513 30.1085 25.0608 31.1285 24 32.0718C22.9391 31.1285 21.9486 30.1085 21.0365 29.0201C20.256 28.088 19.4141 26.9414 18.7701 25.7115C18.1231 24.4758 17.7 23.2017 17.7 22.0021L17.7 22.0018C17.6994 20.7556 18.0685 19.5371 18.7608 18.5007C19.453 17.4643 20.4373 16.6565 21.5889 16.1795C22.7406 15.7026 24.0079 15.5779 25.2304 15.8213C26.453 16.0647 27.5758 16.6653 28.4568 17.5469L28.4581 17.5482C29.0443 18.1317 29.5089 18.8255 29.825 19.5897C30.1412 20.3538 30.3026 21.173 30.3 21.9999Z" stroke="white" stroke-width="1.4"/>
<circle cx="24" cy="22" r="3" stroke="white" stroke-width="1.4"/>
</svg>
